<svg id="Layer_1" data-name="Layer 1" xmlns="http://www.w3.org/2000/svg" xmlns:xlink="http://www.w3.org/1999/xlink" viewBox="0 0 280 300"><defs><style>.cls-1{fill:#656565;}.cls-2{fill:url(#linear-gradient);}.cls-3{fill:url(#linear-gradient-2);}.cls-4{opacity:0.44;isolation:isolate;fill:url(#radial-gradient);}</style><linearGradient id="linear-gradient" x1="11.4" y1="-174.96" x2="52.96" y2="-210.72" gradientTransform="matrix(0.56, 0, 0, -0.57, 42.04, 26.77)" gradientUnits="userSpaceOnUse"><stop offset="0" stop-color="#5c9fd3"/><stop offset="1" stop-color="#316a99"/></linearGradient><linearGradient id="linear-gradient-2" x1="69.03" y1="-232.36" x2="54.19" y2="-211.36" gradientTransform="matrix(0.56, 0, 0, -0.57, 42.04, 26.77)" gradientUnits="userSpaceOnUse"><stop offset="0" stop-color="#ffd53d"/><stop offset="1" stop-color="#fee875"/></linearGradient><radialGradient id="radial-gradient" cx="-1603.31" cy="243.25" r="11.07" gradientTransform="matrix(0, -0.24, -1.05, 0, 327.33, -211.02)" gradientUnits="userSpaceOnUse"><stop offset="0" stop-color="#b9b9b9"/><stop offset="1" stop-color="#7f8080"/></radialGradient></defs><title>python logo</title><path id="path46" class="cls-1" d="M117.74,146.1q0-8.32-4.75-8.56a8.78,8.78,0,0,0-3.68.61,5.41,5.41,0,0,0-1.94,1v13.25a9.42,9.42,0,0,0,5.39,1.77Q117.74,153.86,117.74,146.1Zm3.91.23a11.77,11.77,0,0,1-2,7,7.35,7.35,0,0,1-6.17,3.25,10.88,10.88,0,0,1-6.12-1.85v12l-3.4-1.21V138.84a7.75,7.75,0,0,1,2.15-1.77,14.8,14.8,0,0,1,7.37-1.81l0,.05a6.76,6.76,0,0,1,6.11,3.25A13.8,13.8,0,0,1,121.65,146.33Z"/><path id="path48" class="cls-1" d="M142.41,154.23q0,5.69-1.14,7.86a8,8,0,0,1-4.35,3.49,16.94,16.94,0,0,1-5.63,1.12l-.56-2.14a27,27,0,0,0,4.33-.84,5.71,5.71,0,0,0,3.39-2.56q.75-1.4.75-5.34v-.89a17.43,17.43,0,0,1-7.31,1.58,6.71,6.71,0,0,1-4.42-1.58,5.39,5.39,0,0,1-2.14-4.37V136.42l3.4-1.16v14.23A4.32,4.32,0,0,0,130.2,153a5.56,5.56,0,0,0,3.81,1.19,9.57,9.57,0,0,0,5-1.82v-16.6h3.4Z"/><path id="path50" class="cls-1" d="M155.67,156.42c-.41,0-.78.05-1.12.05a6.68,6.68,0,0,1-4.49-1.38,4.73,4.73,0,0,1-1.6-3.8V137.91h-2.33v-2.14h2.33V130.1l3.39-1.21v6.88h3.82v2.14h-3.82V151.2a3.2,3.2,0,0,0,1,2.7,5.09,5.09,0,0,0,2.79.75Z"/><path id="path52" class="cls-1" d="M176.23,156.14h-3.39V143a6.19,6.19,0,0,0-.94-3.44,3.37,3.37,0,0,0-3-1.63q-2.32,0-5.84,2.46v15.72h-3.4V124.8l3.4-1.07V138a11.83,11.83,0,0,1,7.12-2.37,5.67,5.67,0,0,1,4.37,1.82,6.36,6.36,0,0,1,1.67,4.51v14.18Z"/><path id="path54" class="cls-1" d="M194.29,145.56a10.54,10.54,0,0,0-1.21-5.29,5.08,5.08,0,0,0-4.47-2.68q-5.58.32-5.58,8a13.14,13.14,0,0,0,1.17,5.87,4.7,4.7,0,0,0,4.48,3Q194.29,154.38,194.29,145.56Zm3.72,0a12.09,12.09,0,0,1-2.33,7.58,8.35,8.35,0,0,1-7.07,3.39,8.2,8.2,0,0,1-7-3.39,12.25,12.25,0,0,1-2.27-7.58,10.82,10.82,0,0,1,2.46-7.21,8.47,8.47,0,0,1,6.84-3.12,8.61,8.61,0,0,1,6.88,3.12A10.77,10.77,0,0,1,198,145.59Z"/><path id="path56" class="cls-1" d="M217.48,156.14h-3.4V142.29a4.64,4.64,0,0,0-1.37-3.57,5,5,0,0,0-3.65-1.23,8.21,8.21,0,0,0-4.61,1.58v17.07h-3.39V138.65a16.62,16.62,0,0,1,5.39-2.78,16.28,16.28,0,0,1,4.1-.61,10.42,10.42,0,0,1,2.28.24,6.46,6.46,0,0,1,3.25,1.72,4.52,4.52,0,0,1,1.4,3.34Z"/><path id="path1948" class="cls-2" d="M70.42,124.93a28.39,28.39,0,0,0-4.88.41c-4.33.77-5.11,2.37-5.11,5.32v3.89H70.65v1.3H56.59A6.4,6.4,0,0,0,50.2,141a19.2,19.2,0,0,0,0,10.39c.73,3,2.47,5.19,5.44,5.19h3.51v-4.67a6.49,6.49,0,0,1,6.39-6.35H75.75a5.15,5.15,0,0,0,5.11-5.2v-9.73c0-2.77-2.34-4.86-5.11-5.32A32,32,0,0,0,70.42,124.93Zm-5.52,3.13A1.95,1.95,0,1,1,63,130,1.94,1.94,0,0,1,64.9,128.06Z"/><path id="path1950" class="cls-3" d="M82.14,135.85v4.54a6.56,6.56,0,0,1-6.39,6.48H65.54a5.22,5.22,0,0,0-5.11,5.2v9.73c0,2.77,2.41,4.4,5.11,5.2a17.14,17.14,0,0,0,10.21,0c2.57-.75,5.11-2.25,5.11-5.2v-3.89H70.65v-1.3H86c3,0,4.08-2.08,5.11-5.19s1-6.28,0-10.39c-.73-2.95-2.13-5.18-5.11-5.18ZM76.39,160.5a2,2,0,1,1-1.91,1.94A1.93,1.93,0,0,1,76.39,160.5Z"/><path id="text3004" class="cls-1" d="M224.1,132.75h.59V129h1.41v-.44h-3.42V129h1.42v3.74m2.53,0h.51v-3.42l1.1,3.42h.57l1.15-3.4v3.4h.56v-4.18h-.74l-1.26,3.58-1.07-3.58h-.82v4.18"/><path id="path1894" class="cls-4" d="M84.47,173.61c0,1.47-6.14,2.66-13.7,2.66s-13.7-1.19-13.7-2.66S63.2,171,70.77,171,84.47,172.15,84.47,173.61Z"/></svg>